# xmcd CD database file
#
# Track frame offsets:
#	150
#	68831
#	113376
#	173008
#
# Disc length: 2861 seconds
#
# Revision: 0
# Processed by: cddbd v1.5PL3 Copyright (c) Steve Scherf et al.
# Submitted via: CDex 1.51
#
DISCID=260b2b04
DTITLE=Ken Davis - Aquatic Dreams
DYEAR=2003
DGENRE=New Age
TTITLE0=Meandering River In A Rainforest
TTITLE1=Crystal Cascades Upon The Rocks
TTITLE2=The Mossman Gorge Waterfall
TTITLE3=04 - Sailing The Whitsundays
EXTD=YEAR: 2003
EXTT0=
EXTT1=
EXTT2=
EXTT3=
PLAYORDER=
